<?xml version="1.0" encoding="UTF-8" standalone="no"?><svg xmlns="http://www.w3.org/2000/svg" xmlns:xlink="http://www.w3.org/1999/xlink" fill="#ffffff" height="525.2" preserveAspectRatio="xMidYMid meet" version="1" viewBox="-12.7 -0.0 512.7 525.2" width="512.7" zoomAndPan="magnify"><defs><clipPath id="a"><path d="M 313 30 L 500 30 L 500 525.179688 L 313 525.179688 Z M 313 30"/></clipPath></defs><g><g clip-path="url(#a)" id="change1_1"><path d="M 500 270.3125 C 500 203.535156 473.996094 140.753906 426.777344 93.535156 C 397.019531 63.777344 360.0625 41.890625 319.894531 30.234375 C 317.097656 29.425781 314.179688 31.03125 313.371094 33.824219 C 312.558594 36.617188 314.167969 39.539062 316.960938 40.347656 C 355.425781 51.511719 390.824219 72.476562 419.328125 100.980469 C 464.558594 146.210938 489.46875 206.347656 489.46875 270.3125 C 489.46875 334.277344 464.558594 394.410156 419.328125 439.640625 C 394.605469 464.367188 365.6875 482.914062 333.285156 494.878906 L 349.105469 464.207031 L 341.605469 460.347656 L 318.425781 505.324219 L 364.972656 525.179688 L 368.285156 517.425781 L 337.824219 504.4375 C 371.300781 491.933594 401.191406 472.675781 426.777344 447.089844 C 473.996094 399.871094 500 337.089844 500 270.3125"/></g><g id="change1_2"><path d="M 221.917969 508.136719 C 167.992188 501.808594 119.152344 478.121094 80.671875 439.640625 C -12.699219 346.273438 -12.699219 194.351562 80.667969 100.980469 C 114.90625 66.746094 157.726562 44.082031 204.929688 35.105469 L 184.257812 62.753906 L 191.019531 67.796875 L 221.304688 27.265625 L 178.675781 -0.00390625 L 174.128906 7.097656 L 202.023438 24.933594 C 153.105469 34.425781 108.738281 58.019531 73.222656 93.535156 C 26.003906 140.753906 0 203.535156 0 270.3125 C 0 337.089844 26.003906 399.871094 73.222656 447.089844 C 93.449219 467.3125 116.671875 483.761719 142.253906 495.976562 C 166.972656 507.777344 193.363281 515.390625 220.691406 518.597656 C 220.898438 518.621094 221.105469 518.632812 221.3125 518.632812 C 223.945312 518.632812 226.222656 516.660156 226.535156 513.980469 C 226.875 511.09375 224.808594 508.476562 221.917969 508.136719"/></g><g id="change1_3"><path d="M 250 199.996094 C 267.570312 199.996094 281.863281 214.289062 281.863281 231.855469 C 281.863281 249.425781 267.570312 263.71875 250 263.71875 C 232.433594 263.71875 218.136719 249.425781 218.136719 231.855469 C 218.136719 214.289062 232.433594 199.996094 250 199.996094 Z M 207.605469 231.855469 C 207.605469 255.234375 226.625 274.253906 250 274.253906 C 273.375 274.253906 292.394531 255.234375 292.394531 231.855469 C 292.394531 208.480469 273.375 189.464844 250 189.464844 C 226.625 189.464844 207.605469 208.480469 207.605469 231.855469"/></g><g id="change1_4"><path d="M 107.019531 208.785156 C 107.019531 191.214844 121.3125 176.921875 138.882812 176.921875 C 156.449219 176.921875 170.742188 191.214844 170.742188 208.785156 C 170.742188 226.351562 156.449219 240.648438 138.882812 240.648438 C 121.3125 240.648438 107.019531 226.351562 107.019531 208.785156 Z M 181.273438 208.785156 C 181.273438 185.40625 162.257812 166.390625 138.882812 166.390625 C 115.503906 166.390625 96.484375 185.40625 96.484375 208.785156 C 96.484375 232.160156 115.503906 251.179688 138.882812 251.179688 C 162.257812 251.179688 181.273438 232.160156 181.273438 208.785156"/></g><g id="change1_5"><path d="M 361.117188 263.644531 C 379.6875 263.644531 397.144531 270.875 410.277344 284.007812 C 423.410156 297.140625 430.640625 314.597656 430.640625 333.164062 L 430.640625 340.628906 L 328.515625 340.628906 C 325.464844 325.078125 317.953125 310.980469 306.605469 299.632812 C 305.28125 298.308594 303.90625 297.035156 302.488281 295.804688 C 315.210938 275.863281 337.289062 263.644531 361.117188 263.644531 Z M 319.519531 363.699219 L 180.480469 363.699219 L 180.480469 356.238281 C 180.480469 353.027344 180.703125 349.789062 181.140625 346.617188 C 183.644531 328.527344 193.03125 312.386719 207.570312 301.164062 C 219.816406 291.714844 234.488281 286.714844 250 286.714844 C 265.511719 286.714844 280.183594 291.714844 292.433594 301.167969 C 294.789062 302.984375 297.050781 304.972656 299.15625 307.078125 C 309.96875 317.890625 316.78125 331.5625 318.859375 346.613281 C 319.296875 349.789062 319.519531 353.027344 319.519531 356.238281 Z M 69.359375 333.164062 C 69.359375 294.828125 100.546875 263.644531 138.882812 263.644531 C 157.449219 263.644531 174.90625 270.875 188.039062 284.007812 C 191.621094 287.59375 194.792969 291.550781 197.507812 295.800781 C 184.003906 307.511719 174.914062 323.160156 171.472656 340.628906 L 69.359375 340.628906 Z M 294.078125 289.414062 C 281.003906 280.746094 265.886719 276.183594 250 276.183594 C 234.113281 276.183594 218.996094 280.746094 205.925781 289.414062 C 202.902344 284.789062 199.40625 280.480469 195.484375 276.558594 C 180.363281 261.4375 160.261719 253.109375 138.882812 253.109375 C 94.738281 253.109375 58.828125 289.023438 58.828125 333.164062 L 58.828125 345.894531 C 58.828125 348.800781 61.183594 351.160156 64.09375 351.160156 L 170.113281 351.160156 C 170.007812 352.851562 169.945312 354.546875 169.945312 356.238281 L 169.945312 368.964844 C 169.945312 371.875 172.304688 374.234375 175.214844 374.234375 L 324.785156 374.234375 C 327.695312 374.234375 330.054688 371.875 330.054688 368.964844 L 330.054688 356.238281 C 330.054688 354.546875 329.992188 352.851562 329.886719 351.160156 L 435.90625 351.160156 C 438.816406 351.160156 441.171875 348.800781 441.171875 345.894531 L 441.171875 333.164062 C 441.171875 311.78125 432.84375 291.679688 417.726562 276.558594 C 402.605469 261.4375 382.503906 253.109375 361.117188 253.109375 C 333.972656 253.109375 308.796875 266.886719 294.078125 289.414062"/></g><g id="change1_6"><path d="M 329.257812 208.785156 C 329.257812 191.214844 343.550781 176.921875 361.117188 176.921875 C 378.6875 176.921875 392.980469 191.214844 392.980469 208.785156 C 392.980469 226.351562 378.6875 240.648438 361.117188 240.648438 C 343.550781 240.648438 329.257812 226.351562 329.257812 208.785156 Z M 403.515625 208.785156 C 403.515625 185.40625 384.496094 166.390625 361.117188 166.390625 C 337.742188 166.390625 318.726562 185.40625 318.726562 208.785156 C 318.726562 232.160156 337.742188 251.179688 361.117188 251.179688 C 384.496094 251.179688 403.515625 232.160156 403.515625 208.785156"/></g></g></svg>