<?xml version="1.0" encoding="UTF-8" standalone="no"?><svg xmlns="http://www.w3.org/2000/svg" xmlns:xlink="http://www.w3.org/1999/xlink" fill="#ffffff" height="126" preserveAspectRatio="xMidYMid meet" version="1" viewBox="-0.1 0.0 126.1 126.0" width="126.1" zoomAndPan="magnify"><g id="change1_1"><path d="M124.999,0h-95.04c-0.552,0-1,0.448-1,1v42.091c-3.501,8.567-3.502,18.366,0,26.964v14.404 c-0.878,0.006-1.735,0.369-2.36,1.058l-24.76,27.27c-1.278,1.408-1.928,3.227-1.829,5.121c0.099,1.898,0.938,3.645,2.361,4.916 c1.305,1.171,3.002,1.816,4.778,1.816c2.028,0,3.967-0.852,5.321-2.338l16.489-18.168V125c0,0.552,0.448,1,1,1h95.04 c0.552,0,1-0.448,1-1V1C125.999,0.448,125.551,0,124.999,0z M30.893,43.632c1.477-3.568,3.564-6.852,6.206-9.76 c6.658-7.335,16.057-11.173,25.526-11.173c6.488,0,13.011,1.804,18.701,5.521c1.418,0.917,2.796,1.972,4.097,3.136 c1.955,1.744,3.693,3.695,5.168,5.799c1.661,2.362,3.011,4.917,4.011,7.595c0.016,0.042,0.034,0.082,0.054,0.121 c0.886,2.412,1.495,4.922,1.81,7.465c1.241,9.793-1.864,19.605-8.518,26.922c-6.42,7.072-15.611,11.162-25.215,11.222 c-1.885,0.024-3.797-0.137-5.669-0.438c-5.53-0.871-10.824-3.128-15.317-6.533c-0.664-0.496-1.359-1.067-2.125-1.747 c-0.67-0.594-1.333-1.234-1.969-1.902c-2.901-3.044-5.179-6.534-6.771-10.373c-0.001-0.002-0.002-0.004-0.002-0.006c0,0,0,0,0,0 C27.472,61.25,27.476,51.83,30.893,43.632z M57.909,92.18c1.27,0.162,2.551,0.256,3.83,0.285v22.246h-3.83V92.18z M32.719,86.673 l4.242-4.672c0.439,0.433,0.883,0.857,1.333,1.256c0.489,0.434,0.946,0.816,1.392,1.176l-4.244,4.673L32.719,86.673z M35.577,80.551l-4.349,4.789l-0.068-0.06c-0.059-0.053-0.138-0.084-0.202-0.132V74.172C32.251,76.451,33.795,78.583,35.577,80.551 z M10.989,120.957c-0.974,1.07-2.374,1.684-3.841,1.684c-1.282,0-2.505-0.463-3.444-1.306c-1.023-0.915-1.626-2.168-1.698-3.53 c-0.071-1.358,0.395-2.662,1.312-3.672l24.76-27.271c0.239-0.264,0.567-0.404,0.905-0.404c0.184,0,0.37,0.042,0.546,0.126 c0.125,0.059,0.222,0.121,0.299,0.189l0.784,0.701c0.005,0.005,0.007,0.012,0.012,0.017c0.006,0.006,0.014,0.007,0.02,0.013 l5.007,4.474c0.243,0.217,0.386,0.513,0.403,0.834c0.017,0.323-0.096,0.633-0.318,0.877l-6.52,7.18c0,0,0,0,0,0L10.989,120.957z M123.999,124h-93.04v-22.07l6.259-6.896c0.583-0.64,0.881-1.466,0.836-2.326c-0.044-0.859-0.424-1.649-1.066-2.221l-0.054-0.048 l4.359-4.8c4.354,3.128,9.37,5.263,14.616,6.219v22.852h-3.95V97.47c0-0.552-0.448-1-1-1h-5.83c-0.552,0-1,0.448-1,1v17.24h-4.98 c-0.552,0-1,0.448-1,1s0.448,1,1,1h5.98h5.83h5.95h5.83h5.96h5.82h5.96h5.83h5.95h5.83h5.96h5.82h3.7c0.552,0,1-0.448,1-1 s-0.448-1-1-1h-2.7V81.36c0-0.552-0.448-1-1-1h-5.82c-0.552,0-1,0.448-1,1v33.35h-3.96V90.22c0-0.552-0.448-1-1-1h-5.83 c-0.552,0-1,0.448-1,1v24.49h-3.95V97.47c0-0.552-0.448-1-1-1h-5.83c-0.552,0-1,0.448-1,1v17.24h-3.96v-5.94c0-0.552-0.448-1-1-1 h-5.82c-0.552,0-1,0.448-1,1v5.94h-3.96V92.448c9.8-0.331,19.117-4.605,25.689-11.845c5.011-5.51,8.109-12.358,9.017-19.583h11.454 c0.552,0,1-0.448,1-1s-0.448-1-1-1h-11.26c0.132-1.923,0.108-3.864-0.076-5.81h11.336c0.552,0,1-0.448,1-1s-0.448-1-1-1H98.316 c-0.294-1.968-0.753-3.913-1.373-5.81h12.955c0.552,0,1-0.448,1-1s-0.448-1-1-1H96.211c-0.801-2.019-1.786-3.969-2.948-5.82h16.636 c0.552,0,1-0.448,1-1s-0.448-1-1-1H91.91c-1.495-2.065-3.22-3.99-5.154-5.715c-0.581-0.52-1.184-1.008-1.792-1.485h24.935 c0.552,0,1-0.448,1-1s-0.448-1-1-1H82.154c-14.78-9.47-34.731-6.856-46.535,6.148c-1.803,1.986-3.36,4.139-4.66,6.43V2h93.04V124z M49.959,114.71h-3.83V98.47h3.83V114.71z M85.309,114.71h-3.83V98.47h3.83V114.71z M108.869,114.71h-3.82V82.36h3.82V114.71z" fill="inherit"/><path d="M44.484,67.509c0.001,0.001,0.002,0.002,0.002,0.003c0.001,0.002,0.002,0.004,0.003,0.006 c0.025,0.04,0.057,0.07,0.086,0.105c0.026,0.031,0.048,0.067,0.077,0.094c0.039,0.037,0.085,0.064,0.129,0.094 c0.026,0.018,0.049,0.04,0.077,0.055c0.051,0.028,0.107,0.046,0.162,0.064c0.024,0.008,0.047,0.022,0.071,0.028 c0.081,0.021,0.165,0.031,0.249,0.031c0.089,0,0.179-0.012,0.267-0.037c0.024-0.007,0.047-0.022,0.071-0.03 c0.061-0.022,0.123-0.043,0.181-0.078l15.661-9.508V76.54c0,0.552,0.448,1,1,1c7.724,0,14.833-4.174,18.558-10.902 c0,0,0,0,0.001-0.001c0,0,0,0,0-0.001c0,0,0.001-0.001,0.001-0.001c0.011-0.019,0.041-0.07,0.05-0.089 c0.249-0.486,0.042-1.047-0.44-1.304c-0.057-0.03-0.119-0.033-0.178-0.051l-16.992-9.227V36.58c0-0.552-0.448-1-1-1 c-4.231,0-8.31,1.234-11.797,3.569c-4.649,3.114-7.914,8.01-8.953,13.422c-0.259,1.274-0.39,2.616-0.39,3.989 c0,3.884,1.074,7.669,3.104,10.946C44.483,67.507,44.483,67.508,44.484,67.509z M61.519,53.303l-8.827-13.021 c2.677-1.595,5.691-2.506,8.827-2.666V53.303z M43.583,53.948l16.196,3.105l-14.084,8.55c-1.514-2.758-2.317-5.861-2.317-9.043 C43.379,55.667,43.461,54.8,43.583,53.948z" fill="inherit"/><path d="M58.99,63.269c-0.326-0.184-0.726-0.171-1.039,0.034l-14.43,9.44c-0.248,0.162-0.411,0.425-0.445,0.718 c-0.035,0.293,0.061,0.587,0.263,0.803c3.855,4.112,8.824,6.826,14.368,7.849c0.061,0.011,0.121,0.017,0.182,0.017 c0.226,0,0.447-0.077,0.626-0.22c0.227-0.182,0.363-0.454,0.374-0.744l0.61-16.99C59.511,63.803,59.316,63.453,58.99,63.269z M56.932,79.909c-4.276-0.999-8.142-3.106-11.294-6.16l11.792-7.715L56.932,79.909z" fill="inherit"/><path d="M66.595,54.711l19.61,9.98c0.142,0.072,0.298,0.109,0.454,0.109c0.133,0,0.267-0.027,0.393-0.081 c0.272-0.116,0.479-0.347,0.564-0.631c0.738-2.45,1.112-4.983,1.112-7.528c0-12.573-9.043-23.328-21.503-25.574 c-0.292-0.052-0.592,0.026-0.818,0.217c-0.228,0.19-0.359,0.471-0.359,0.767v21.85C66.048,54.196,66.259,54.541,66.595,54.711z M68.048,33.196c10.895,2.518,18.68,12.159,18.68,23.364c0,1.951-0.238,3.894-0.709,5.792l-17.971-9.146V33.196z" fill="inherit"/><path d="M62.519,87.63c17.27,0,31.32-13.938,31.32-31.07c0-17.126-14.05-31.06-31.32-31.06c-17.265,0-31.31,13.934-31.31,31.06 C31.209,73.692,45.254,87.63,62.519,87.63z M62.519,27.5c16.167,0,29.32,13.036,29.32,29.06c0,16.029-13.153,29.07-29.32,29.07 c-16.162,0-29.31-13.041-29.31-29.07C33.209,40.536,46.357,27.5,62.519,27.5z" fill="inherit"/><path d="M50.129,16.25h59.77c0.552,0,1-0.448,1-1s-0.448-1-1-1h-59.77c-0.552,0-1,0.448-1,1S49.576,16.25,50.129,16.25z" fill="inherit"/></g></svg>