<?xml version="1.0" encoding="UTF-8" standalone="no"?><svg xmlns="http://www.w3.org/2000/svg" xmlns:xlink="http://www.w3.org/1999/xlink" clip-rule="evenodd" fill="#ffffff" fill-rule="evenodd" height="2210.1" preserveAspectRatio="xMidYMid meet" stroke-linejoin="round" stroke-miterlimit="1.414" version="1" viewBox="-0.8 -0.7 1199.0 2210.1" width="1199" zoomAndPan="magnify"><g id="change1_1"><path d="m1096.4 0.833c2.324 0.011 4.646 0.095 6.964 0.264 4.35 0.317 8.678 0.921 12.948 1.808 5.479 1.139 10.859 2.746 16.065 4.799 5.585 2.202 10.968 4.916 16.06 8.096 5.211 3.254 10.12 6.992 14.64 11.152 5.096 4.688 9.7 9.907 13.713 15.55 3.756 5.28 6.991 10.93 9.643 16.842 2.656 5.92 4.722 12.103 6.162 18.429 1.013 4.447 1.716 8.966 2.104 13.511 0.224 2.626 0.342 5.261 0.361 7.897 3.107 670.08 3.108 1340.2 0 2010.3-0.019 2.636-0.137 5.271-0.361 7.898-0.388 4.544-1.091 9.063-2.103 13.51-1.307 5.738-3.128 11.359-5.438 16.772-2.545 5.966-5.681 11.679-9.345 17.033-3.688 5.39-7.911 10.414-12.584 14.977-4.676 4.567-9.804 8.671-15.285 12.232-4.774 3.101-9.815 5.789-15.051 8.023-5.413 2.309-11.033 4.13-16.771 5.437-4.448 1.013-8.966 1.716-13.511 2.103-2.627 0.224-5.261 0.342-7.897 0.362-331.92 1.539-663.85 1.539-995.77 0-2.636-0.02-5.27-0.138-7.897-0.362-4.545-0.387-9.064-1.09-13.511-2.103-5.738-1.307-11.358-3.128-16.771-5.437-6.332-2.702-12.378-6.068-18.012-10.024-5.345-3.752-10.319-8.034-14.825-12.762-4.373-4.587-8.307-9.593-11.728-14.929-3.183-4.965-5.922-10.214-8.169-15.667-2.166-5.259-3.877-10.705-5.104-16.258-1.007-4.558-1.69-9.188-2.043-13.842-0.176-2.314-0.268-4.634-0.286-6.955-3.419-670.09-3.418-1340.2 0-2010.3 0.018-2.321 0.11-4.641 0.286-6.955 0.353-4.655 1.036-9.284 2.043-13.842 1.293-5.85 3.121-11.58 5.455-17.097 2.412-5.702 5.362-11.175 8.797-16.326 3.516-5.27 7.536-10.203 11.989-14.709s9.336-8.585 14.563-12.162c5.188-3.55 10.714-6.606 16.481-9.108 5.772-2.504 11.784-4.452 17.928-5.81 4.455-0.985 8.978-1.659 13.526-2.019 2.42-0.192 4.846-0.291 7.273-0.311 331.82-1.577 663.64-0.53 995.46-1e-3zm-466.75 2016.3h-61.868c-24.315 0-44.054 19.74-44.054 44.053v61.869c0 24.313 19.74 44.053 44.054 44.053h61.868c24.314 0 44.054-19.74 44.054-44.053v-61.869c0-24.313-19.739-44.053-44.054-44.053zm-11.59 28.095c15.205 1e-3 27.548 12.345 27.548 27.548v38.688c0 15.204-12.344 27.548-27.548 27.548h-38.688c-15.204 0-27.548-12.344-27.548-27.548v-38.688c0-15.203 12.343-27.547 27.548-27.548h38.688zm542.18-1891.2h-1122.6c-0.917 608.47-2.95 1216.9-0.509 1825.4h1123.2c1.178-608.47 2.574-1216.9-5e-3 -1825.4zm-365.09-94.224h-392.86c-4.644 1e-3 -8.413 3.77-8.413 8.413v16.827c0 4.643 3.77 8.413 8.413 8.413h392.86c4.644 0 8.414-3.77 8.414-8.413v-16.827c0-4.643-3.769-8.412-8.414-8.413z" fill="inherit"/></g></svg>