<?xml version="1.0" encoding="UTF-8" standalone="no"?><svg xmlns="http://www.w3.org/2000/svg" xmlns:xlink="http://www.w3.org/1999/xlink" fill="#000000" height="284.4" preserveAspectRatio="xMidYMid meet" version="1" viewBox="67.2 70.4 290.8 284.4" width="290.8" zoomAndPan="magnify"><g id="change1_1"><path d="M275.348,276.866h-44.776v10h44.776V276.866 M164.428,70.397c-0.003,0-0.004,0-0.007,0 c-18.003-0.001-34.348,7.313-46.139,19.112c-11.801,11.792-19.114,28.136-19.111,46.138c-0.001,9.541,2.062,18.62,5.752,26.795 c-10.302,4.8-19.133,12.203-25.658,21.365c-7.593,10.659-12.067,23.734-12.064,37.808c-0.003,18.002,7.311,34.347,19.111,46.14 c11.789,11.797,28.131,19.111,46.129,19.111c0.005,0,0.006,0,0.01,0h88.121v-10H132.45c-15.273-0.003-29.054-6.176-39.067-16.183 c-10.007-10.015-16.181-23.794-16.183-39.068c0.002-11.949,3.778-22.969,10.21-32.007c6.434-9.035,15.522-16.053,26.108-19.913 c1.377-0.502,2.464-1.583,2.974-2.956c0.51-1.374,0.393-2.902-0.322-4.182c-4.452-7.971-6.998-17.124-6.999-26.91 c0.002-15.272,6.176-29.053,16.183-39.068c10.013-10.005,23.794-16.179,39.067-16.181c11.644,0.001,22.398,3.588,31.303,9.725 c8.898,6.138,15.914,14.826,19.988,24.991c0.537,1.342,1.613,2.373,2.978,2.854c0.544,0.193,1.107,0.288,1.668,0.288 c0.845,0,1.683-0.216,2.44-0.642c6.614-3.708,14.209-5.827,22.336-5.828c12.646,0.003,24.048,5.111,32.34,13.397 c8.285,8.292,13.395,19.695,13.396,32.341c0,1.151-0.059,2.328-0.15,3.541c-0.102,1.351,0.342,2.671,1.239,3.686 c0.896,1.016,2.153,1.619,3.506,1.685l0.241-4.994l-0.241,4.994c14.632,0.708,27.745,7.093,37.236,17.019 c9.485,9.933,15.297,23.343,15.3,38.162c-0.003,15.274-6.176,29.054-16.183,39.068c-10.014,10.006-23.794,16.18-39.067,16.183 h-7.402v10h7.402c18.003,0.002,34.347-7.311,46.139-19.111c11.801-11.793,19.113-28.137,19.111-46.14 c0.002-17.465-6.883-33.372-18.069-45.07c-10.108-10.582-23.774-17.777-39.065-19.676c-0.172-15.118-6.385-28.83-16.32-38.758 c-10.068-10.076-24.031-16.325-39.401-16.325c-0.004,0-0.007,0-0.011,0c-7.941-0.001-15.512,1.673-22.357,4.678 c-4.955-9.89-12.34-18.339-21.376-24.573C190.901,74.647,178.139,70.397,164.428,70.397" fill="#ffffff"/></g><g id="change2_1"><path d="M225.571,339.802l-14.701-25.463h29.402L225.571,339.802 M248.933,309.338l-4.33-2.499L248.933,309.338 M248.933,304.339L248.933,304.339h-18.361v10h-10v-10H202.21c-1.787,0-3.438,0.953-4.331,2.499c-0.893,1.548-0.893,3.453,0,5.001 l23.362,40.463c0.893,1.546,2.544,2.5,4.33,2.5s3.436-0.954,4.33-2.5l23.361-40.463c0.893-1.548,0.893-3.453,0-5 C252.37,305.292,250.719,304.339,248.933,304.339" fill="#ffffff"/></g><g id="change2_2"><path d="M280.349,208.928c-1.787,0-3.437,0.953-4.329,2.5l-23.364,40.464c-0.894,1.546-0.894,3.453,0,5 c0.893,1.547,2.544,2.5,4.33,2.5l0,0h18.362v-10h-9.701l14.702-25.463l14.701,25.463h-9.701v10h18.361c1.786,0,3.437-0.953,4.33-2.5 c0.893-1.546,0.893-3.452,0-5l-23.361-40.464C283.785,209.882,282.136,208.928,280.349,208.928" fill="#ffffff"/></g><g id="change2_3"><path d="M230.571,286.866h-10v17.473h10V286.866 M230.571,208.928h-10v67.938h10V208.928" fill="#ffffff"/></g><g id="change3_1"><path d="M230.571 276.866L220.571 276.866 220.571 286.866 230.571 286.866 230.571 276.866" fill="#ffffff"/></g><g id="change4_1"><path d="M230.571 304.339L220.571 304.339 220.571 314.339 230.571 314.339 230.571 304.339" fill="#ffffff"/></g><g id="change2_4"><path d="M285.349,286.866h-10.001v67.937h10.001V286.866 M285.349,259.392h-10.001v17.475h10.001V259.392" fill="#ffffff"/></g><g id="change3_2"><path d="M285.349 276.866L275.348 276.866 275.348 286.866 285.349 286.866 285.349 276.866" fill="#ffffff"/></g><g id="change4_2"><path d="M285.349 249.392L275.348 249.392 275.348 259.392 285.349 259.392 285.349 249.392" fill="#ffffff"/></g></svg>