<?xml version="1.0" encoding="UTF-8" standalone="no"?><svg xmlns="http://www.w3.org/2000/svg" xmlns:xlink="http://www.w3.org/1999/xlink" fill="#ffffff" height="530.2" preserveAspectRatio="xMidYMid meet" version="1" viewBox="0.0 0.0 500.0 530.2" width="500" zoomAndPan="magnify"><defs><clipPath id="a"><path d="M 144 0 L 500 0 L 500 530.230469 L 144 530.230469 Z M 144 0"/></clipPath></defs><g><g id="change1_2"><path d="M 369.519531 358.242188 C 368.6875 359.21875 367.765625 360.214844 366.792969 361.1875 L 308.550781 419.433594 C 304.609375 423.371094 299.371094 425.542969 293.800781 425.542969 C 288.226562 425.542969 282.988281 423.371094 279.046875 419.433594 L 220.8125 361.195312 C 219.835938 360.214844 218.914062 359.222656 218.074219 358.234375 C 200.882812 338.144531 202.082031 307.742188 220.804688 289.019531 C 230.441406 279.378906 243.257812 274.070312 256.890625 274.070312 C 269.101562 274.070312 280.90625 278.445312 290.132812 286.382812 C 292.238281 288.195312 295.359375 288.195312 297.46875 286.382812 C 306.691406 278.445312 318.496094 274.070312 330.710938 274.070312 C 344.339844 274.070312 357.15625 279.378906 366.792969 289.019531 C 385.515625 307.742188 386.71875 338.144531 369.519531 358.242188 Z M 374.746094 281.066406 C 362.984375 269.304688 347.34375 262.828125 330.710938 262.828125 C 317.378906 262.828125 304.441406 267.097656 293.800781 274.9375 C 283.15625 267.097656 270.21875 262.828125 256.890625 262.828125 C 240.253906 262.828125 224.617188 269.304688 212.855469 281.066406 C 201.695312 292.226562 195.234375 307.050781 194.65625 322.8125 C 194.082031 338.488281 199.363281 353.664062 209.523438 365.539062 C 210.546875 366.742188 211.667969 367.949219 212.855469 369.140625 L 271.097656 427.382812 C 277.160156 433.449219 285.222656 436.785156 293.800781 436.785156 C 302.375 436.785156 310.4375 433.449219 316.503906 427.382812 L 374.75 369.136719 C 375.933594 367.949219 377.054688 366.738281 378.070312 365.546875 C 388.234375 353.664062 393.515625 338.488281 392.945312 322.8125 C 392.367188 307.050781 385.902344 292.226562 374.746094 281.066406"/></g><g id="change1_3"><path d="M 101.769531 482.324219 C 101.769531 502.34375 85.480469 518.632812 65.460938 518.632812 L 47.554688 518.632812 C 27.535156 518.632812 11.246094 502.34375 11.246094 482.324219 L 11.246094 228.742188 C 11.246094 208.71875 27.535156 192.429688 47.554688 192.429688 L 65.460938 192.429688 C 85.480469 192.429688 101.769531 208.71875 101.769531 228.742188 Z M 65.460938 181.183594 L 47.554688 181.183594 C 21.332031 181.183594 0 202.519531 0 228.742188 L 0 482.324219 C 0 508.546875 21.332031 529.878906 47.554688 529.878906 L 65.460938 529.878906 C 91.683594 529.878906 113.015625 508.546875 113.015625 482.324219 L 113.015625 228.742188 C 113.015625 202.519531 91.683594 181.183594 65.460938 181.183594"/></g><g clip-path="url(#a)" id="change1_1"><path d="M 460.96875 284.871094 C 459.25 285.449219 457.917969 286.816406 457.386719 288.550781 C 456.855469 290.28125 457.191406 292.164062 458.289062 293.605469 C 466.746094 304.710938 469.335938 320.988281 465.046875 336.085938 C 461.296875 349.28125 452.8125 359.277344 441.765625 363.511719 C 440.136719 364.136719 438.890625 365.480469 438.390625 367.148438 C 437.890625 368.816406 438.191406 370.625 439.207031 372.039062 C 445.835938 381.28125 446.695312 393.207031 446.253906 401.585938 C 446.246094 401.707031 446.246094 401.832031 446.246094 401.953125 C 446.445312 418 436.203125 433.605469 421.339844 439.90625 C 419.820312 440.550781 418.660156 441.828125 418.167969 443.402344 C 417.675781 444.976562 417.898438 446.691406 418.78125 448.085938 C 427.871094 462.472656 428.140625 481.757812 419.464844 497.21875 C 411.898438 510.707031 399.113281 518.398438 384.3125 518.398438 C 384.121094 518.398438 383.933594 518.398438 383.742188 518.394531 C 380.335938 518.132812 368.105469 518.117188 310.03125 518.445312 C 271.242188 518.664062 223.0625 518.9375 218.078125 518.492188 C 217.511719 518.382812 216.929688 518.359375 216.347656 518.425781 C 197.460938 520.609375 180.332031 516.386719 169.355469 506.832031 C 160.609375 499.21875 156.007812 488.636719 155.6875 475.375 L 155.6875 201.296875 C 155.6875 196.152344 159.441406 190.453125 163.066406 184.941406 C 164.320312 183.039062 165.613281 181.074219 166.722656 179.160156 C 186.695312 144.683594 194.433594 113.492188 192.601562 74.863281 C 192.597656 74.777344 192.589844 74.691406 192.582031 74.605469 C 192.382812 72.472656 192.132812 70.160156 191.867188 67.722656 C 189.789062 48.609375 186.945312 22.464844 201.960938 14.636719 C 215.765625 9.210938 230.371094 10.214844 245.375 17.625 C 272.261719 30.90625 292.972656 61.535156 299.535156 84.925781 C 299.542969 84.957031 299.550781 84.984375 299.5625 85.015625 C 308.695312 115.632812 309.464844 149.328125 301.984375 191.0625 C 301.691406 192.703125 302.136719 194.386719 303.203125 195.664062 C 304.273438 196.941406 305.851562 197.679688 307.519531 197.679688 L 446.9375 197.679688 C 446.96875 197.679688 446.996094 197.679688 447.027344 197.675781 C 472.578125 197.269531 485.074219 217.113281 488.011719 234.214844 C 491.261719 253.136719 484.183594 277.058594 460.96875 284.871094 Z M 499.09375 232.3125 C 495.15625 209.367188 477.773438 186.425781 447.769531 186.425781 C 447.480469 186.425781 447.191406 186.429688 446.898438 186.433594 L 314.183594 186.433594 C 320.742188 145.925781 319.503906 112.542969 310.351562 81.84375 C 301.765625 51.304688 277.101562 20.753906 250.355469 7.542969 C 232.539062 -1.257812 214.277344 -2.382812 197.554688 4.289062 C 197.402344 4.347656 197.253906 4.414062 197.105469 4.488281 C 174.894531 15.691406 178.382812 47.734375 180.6875 68.9375 C 180.941406 71.265625 181.183594 73.476562 181.371094 75.523438 C 183.074219 111.777344 175.78125 141.089844 156.988281 173.523438 C 156.042969 175.15625 154.894531 176.90625 153.675781 178.757812 C 149.347656 185.332031 144.441406 192.78125 144.441406 201.296875 L 144.441406 475.441406 C 144.441406 475.484375 144.441406 475.53125 144.445312 475.574219 C 144.824219 491.921875 150.886719 505.664062 161.972656 515.316406 C 173.101562 525 189.046875 530.230469 206.792969 530.230469 C 210.152344 530.230469 213.582031 530.042969 217.054688 529.660156 C 221.636719 530.042969 237.988281 530.097656 310.09375 529.691406 C 342.386719 529.507812 378.941406 529.304688 382.722656 529.574219 C 382.976562 529.613281 383.230469 529.632812 383.488281 529.636719 C 402.804688 529.960938 419.511719 520.121094 429.273438 502.722656 C 438.894531 485.570312 439.523438 464.519531 431.28125 447.472656 C 447.132812 438.230469 457.648438 420.355469 457.492188 402 C 457.925781 393.417969 457.152344 381.730469 451.800781 371.183594 C 463.210938 364.746094 471.820312 353.390625 475.863281 339.160156 C 480.386719 323.25 478.542969 306.125 471.160156 292.816406 C 495.394531 280.9375 502.808594 253.949219 499.09375 232.3125"/></g></g></svg>