<?xml version="1.0" encoding="UTF-8" standalone="no"?><svg xmlns="http://www.w3.org/2000/svg" xmlns:xlink="http://www.w3.org/1999/xlink" fill="#8c52ff" height="483.1" preserveAspectRatio="xMidYMid meet" version="1" viewBox="0.0 -0.0 483.9 483.1" width="483.9" zoomAndPan="magnify"><g id="change1_1"><path d="M4490 5366 c0 -84 -49 -265 -122 -447 l-50 -126 -91 -13 c-120 -16 -293 -60 -403 -104 -49 -19 -129 -50 -179 -69 -139 -53 -378 -172 -485 -242 -36 -23 -95 -61 -131 -84 -36 -22 -77 -53 -90 -67 -13 -14 -47 -41 -75 -59 -50 -32 -75 -54 -140 -126 -17 -19 -52 -51 -77 -72 -32 -26 -50 -51 -58 -77 -9 -31 -22 -46 -56 -65 -49 -29 -73 -68 -73 -119 0 -30 -5 -38 -32 -52 -76 -38 -96 -86 -63 -144 20 -35 20 -35 -27 -49 -107 -31 -115 -66 -32 -138 l55 -49 -95 -23 c-53 -12 -99 -27 -102 -32 -11 -18 17 -37 126 -85 61 -26 110 -51 110 -54 0 -10 -175 -51 -242 -58 -40 -3 -58 -9 -58 -18 0 -9 12 -14 35 -14 88 0 329 -68 500 -142 l71 -30 18 -117 c29 -193 140 -522 246 -731 26 -52 58 -117 70 -145 12 -27 46 -86 74 -130 29 -44 67 -106 85 -137 18 -32 54 -82 80 -110 26 -29 59 -71 74 -94 14 -22 42 -56 63 -75 21 -19 52 -49 69 -68 90 -99 114 -121 143 -127 23 -5 38 -18 57 -50 29 -50 68 -74 119 -74 30 0 38 -5 52 -32 38 -76 86 -96 144 -63 35 20 35 20 49 -27 31 -107 67 -115 138 -32 l48 56 22 -93 c12 -51 27 -97 32 -102 18 -18 37 10 86 123 26 61 51 110 55 110 11 0 51 -169 57 -242 8 -79 28 -77 36 4 11 113 78 334 152 503 l18 41 116 18 c193 29 522 140 731 246 52 26 118 58 145 70 28 12 86 46 130 74 44 29 106 67 137 85 32 18 82 54 110 80 29 26 71 59 94 74 22 14 56 42 75 63 19 21 49 52 68 69 99 90 121 114 127 143 5 23 18 38 50 57 50 29 74 68 74 119 0 30 5 38 33 52 75 38 95 86 62 144 -20 35 -20 35 28 49 106 31 114 67 31 138 l-55 48 92 22 c51 13 97 27 103 33 17 17 -12 37 -124 85 -61 26 -110 51 -110 55 0 11 176 52 248 58 81 6 77 25 -8 34 -121 14 -338 79 -506 154 l-42 18 -12 90 c-22 169 -63 302 -182 606 -38 97 -194 407 -225 447 -16 21 -46 68 -66 105 -21 37 -59 91 -86 120 -26 29 -60 72 -75 95 -14 24 -45 60 -68 80 -56 51 -76 73 -121 127 -25 30 -51 49 -77 57 -31 9 -46 22 -65 56 -29 49 -68 73 -119 73 -30 0 -38 5 -52 33 -38 75 -86 95 -144 62 -35 -20 -35 -20 -49 28 -31 106 -67 114 -138 31 l-48 -55 -22 92 c-13 51 -27 97 -33 103 -17 17 -37 -12 -85 -124 -26 -61 -51 -110 -55 -110 -10 0 -51 174 -58 243 -3 39 -9 57 -18 57 -9 0 -14 -12 -14 -34z m243 -151 c9 -38 18 -77 22 -86 4 -10 -17 -47 -59 -103 l-64 -88 -21 56 -21 56 57 125 c31 69 60 122 64 118 3 -5 13 -39 22 -78z m-183 -116 c13 -46 13 -46 -34 -134 -73 -134 -95 -165 -122 -165 -12 0 -29 -3 -38 -6 -12 -5 -10 7 11 52 39 87 112 310 125 383 l12 64 17 -74 c9 -41 22 -95 29 -120z m385 60 c9 -27 15 -52 13 -57 -2 -4 -31 -33 -65 -65 l-62 -59 -16 57 c-20 67 -16 78 45 148 49 56 60 53 85 -24z m160 -45 c17 -17 48 -74 43 -79 -9 -8 -109 -55 -117 -55 -5 0 -14 21 -20 48 -7 26 -13 51 -14 56 -2 10 61 46 80 46 6 0 19 -7 28 -16z m-309 -100 l16 -56 -63 -58 c-62 -56 -64 -57 -76 -36 -7 11 -12 28 -13 36 0 13 107 170 116 170 2 0 11 -25 20 -56z m204 -44 c0 -13 -110 -90 -129 -90 -7 0 -34 73 -28 75 1 0 31 27 66 60 l64 59 13 -44 c8 -25 14 -52 14 -60z m-381 -48 c1 -7 -18 -37 -41 -67 -38 -48 -47 -54 -81 -54 l-39 -1 20 33 c28 45 75 127 92 160 l14 28 17 -43 c10 -24 18 -49 18 -56z m648 78 c30 -18 60 -57 51 -66 -3 -2 -25 -7 -51 -10 -44 -6 -47 -5 -57 20 -24 64 -24 76 1 76 13 0 38 -9 56 -20z m-87 -43 c7 -21 9 -41 6 -44 -13 -13 -119 -44 -126 -36 -4 4 -12 22 -18 39 -10 31 -10 32 51 63 33 17 64 28 68 24 3 -5 12 -25 19 -46z m-344 -73 c5 -28 2 -33 -43 -62 -52 -33 -88 -41 -95 -20 -5 15 114 129 124 119 4 -3 10 -20 14 -37z m188 24 c12 -47 7 -55 -59 -83 -36 -15 -67 -26 -69 -24 -2 2 -7 14 -10 26 -6 19 2 28 56 62 35 22 66 41 69 41 4 0 9 -10 13 -22z m331 -40 c11 -20 17 -39 15 -41 -3 -2 -30 -7 -62 -11 -56 -6 -56 -6 -67 26 -17 48 -14 56 22 61 59 8 71 3 92 -35z m99 -27 c16 -17 28 -32 25 -34 -2 -3 -21 -2 -41 0 -33 5 -38 9 -52 49 l-15 44 27 -14 c15 -8 40 -28 56 -45z m-794 -18 c0 -15 -38 -26 -70 -21 -22 3 -22 4 11 44 l34 42 12 -27 c7 -14 12 -32 13 -38z m560 0 c0 -13 -5 -14 -92 -31 -43 -9 -48 -8 -49 9 -1 11 -2 25 -3 31 -1 7 26 23 59 34 l60 22 12 -26 c7 -15 12 -33 13 -39z m-355 -14 c8 -25 -11 -42 -40 -34 -11 2 -27 5 -35 5 -13 0 47 48 62 50 4 0 10 -10 13 -21z m188 -1 c8 -31 5 -34 -63 -48 -45 -10 -64 -10 -72 -2 -15 15 -14 15 57 45 75 31 72 31 78 5z m343 -51 l13 -37 -67 6 c-37 4 -68 7 -69 8 -1 1 -4 13 -8 28 -6 23 -4 27 22 31 15 2 43 4 62 3 30 -1 36 -5 47 -39z m-154 -2 c5 -25 5 -25 -69 -25 -66 0 -74 2 -71 18 2 12 19 20 63 28 33 6 63 9 66 7 4 -1 9 -14 11 -28z m242 15 c22 -8 64 -66 54 -75 -2 -1 -26 2 -55 8 -40 8 -53 16 -57 33 -3 12 -9 30 -13 40 -5 14 -2 16 20 10 14 -3 37 -10 51 -16z m-1074 2 c0 -17 -25 -32 -53 -32 -37 0 -31 23 9 31 43 10 44 10 44 1z m85 -12 c-10 -11 -31 -20 -47 -20 -26 0 -27 2 -16 20 9 14 24 20 47 20 33 0 34 0 16 -20z m100 0 c-10 -11 -31 -20 -47 -20 -26 0 -28 2 -18 20 8 14 21 20 47 20 35 0 36 0 18 -20z m-285 1 c0 -6 -4 -12 -9 -16 -12 -7 -263 -37 -268 -31 -4 4 209 49 265 55 6 0 12 -3 12 -8z m378 -3 c-3 -7 -20 -14 -38 -16 -30 -3 -32 -2 -21 12 16 19 65 22 59 4z m107 -8 c-3 -5 -20 -10 -36 -10 -18 0 -28 4 -24 10 3 6 20 10 36 10 18 0 28 -4 24 -10z m281 -27 c-2 -3 -22 -1 -43 4 l-38 10 35 10 c27 8 37 7 43 -4 5 -8 6 -17 3 -20z m-186 11 c0 -2 -17 -4 -37 -3 -29 0 -33 2 -18 8 18 7 55 4 55 -5z m81 -22 c-7 -2 -18 1 -23 6 -8 8 -4 9 13 5 13 -4 18 -8 10 -11z m-693 -17 c-6 -14 -14 -25 -18 -25 -32 0 -340 -46 -439 -65 -69 -14 -126 -23 -128 -21 -7 7 94 45 173 65 78 20 289 56 369 64 22 2 43 4 47 5 4 1 2 -9 -4 -23z m90 13 c-5 -15 -57 -42 -65 -35 -2 3 0 15 7 26 12 23 65 31 58 9z m77 -8 c-10 -11 -29 -20 -42 -20 -21 0 -22 2 -11 20 8 13 24 20 42 20 28 0 29 0 11 -20z m85 5 c-7 -8 -24 -15 -37 -15 -22 0 -24 2 -13 15 7 8 24 15 37 15 22 0 24 -2 13 -15z m84 0 c-10 -8 -27 -15 -38 -15 -15 0 -16 3 -6 15 7 8 24 15 38 15 25 0 25 -1 6 -15z m91 5 c-3 -5 -15 -10 -26 -10 -11 0 -17 5 -14 10 3 6 15 10 26 10 11 0 17 -4 14 -10z m906 -31 l33 -41 -32 16 c-38 19 -68 66 -43 66 5 0 24 -19 42 -41z m-1594 25 c-3 -3 -12 -4 -19 -1 -8 3 -5 6 6 6 11 1 17 -2 13 -5z m1245 -12 c5 -17 0 -18 -61 -9 -99 13 -109 26 -20 27 66 0 77 -3 81 -18z m130 8 c16 0 45 -46 36 -56 -7 -6 -133 29 -140 39 -16 24 -7 30 38 23 26 -3 55 -6 66 -6z m124 -31 c34 -9 43 -17 52 -46 10 -32 9 -33 -11 -27 -72 23 -105 43 -109 68 -4 21 -2 26 11 22 9 -3 35 -10 57 -17z m-547 -96 c152 -312 383 -656 590 -877 91 -97 10 -32 -142 114 -117 113 -301 321 -388 440 -86 117 -236 354 -254 402 -7 18 14 23 101 26 l41 2 52 -107z m101 97 c33 -10 37 -16 75 -113 52 -134 195 -422 285 -572 72 -120 210 -323 258 -380 14 -16 -13 9 -59 56 -226 228 -511 641 -643 932 -20 43 -36 80 -36 83 0 8 85 4 120 -6z m-599 -14 c-6 -8 -22 -16 -34 -19 -22 -6 -22 -6 2 14 27 22 49 26 32 5z m69 4 c-20 -13 -33 -13 -25 0 3 6 14 10 23 10 15 0 15 -2 2 -10z m-140 -4 c0 -11 -33 -36 -46 -36 -12 0 -12 4 -4 20 9 17 50 30 50 16z m398 -96 c224 -390 508 -715 897 -1025 201 -160 297 -275 390 -471 46 -96 100 -266 92 -287 -3 -7 -47 -37 -98 -66 -383 -217 -714 -507 -1024 -896 -160 -201 -275 -297 -471 -390 -95 -46 -266 -100 -287 -92 -7 2 -32 40 -56 83 -175 316 -445 642 -751 909 -63 55 -144 122 -180 149 -146 110 -282 277 -365 451 -40 83 -95 248 -95 285 0 8 28 29 66 49 69 36 233 140 325 206 280 202 522 438 743 724 121 157 279 288 445 369 99 48 262 103 295 99 13 -1 38 -34 74 -97z m448 64 c38 -14 42 -20 63 -82 92 -272 278 -679 414 -904 36 -60 62 -108 58 -108 -13 1 -291 387 -291 404 0 3 -19 36 -43 73 -89 139 -228 419 -292 589 l-23 62 36 -10 c21 -5 55 -16 78 -24z m-1005 -3 c-7 -12 -26 -23 -49 -27 -154 -26 -526 -99 -610 -119 -57 -14 -107 -25 -110 -25 -4 0 21 18 55 39 72 46 184 77 423 116 156 25 292 43 298 39 2 -1 -1 -11 -7 -23z m79 21 c0 -14 -24 -32 -42 -32 -16 0 -17 3 -8 20 10 19 50 29 50 12z m1060 -13 c31 -7 54 -18 60 -30 11 -20 7 -19 -130 34 -27 10 15 8 70 -4z m306 -70 c20 -40 19 -40 -30 -13 -30 17 -48 35 -55 56 -6 17 -11 33 -11 35 0 13 84 -56 96 -78z m-1281 41 c-3 -5 -11 -10 -16 -10 -6 0 -7 5 -4 10 3 6 11 10 16 10 6 0 7 -4 4 -10z m-73 -22 c-6 -6 -15 -8 -19 -4 -4 4 -1 11 7 16 19 12 27 3 12 -12z m1202 1 c42 -17 57 -28 65 -50 l10 -29 -62 31 c-59 30 -76 44 -77 62 0 10 1 10 64 -14z m-1263 -8 c-6 -10 -19 -21 -30 -24 -17 -4 -18 -2 -8 14 6 10 18 20 27 23 8 2 16 4 18 5 1 0 -2 -7 -7 -18z m1280 -312 c101 -301 154 -436 261 -664 43 -93 74 -165 69 -160 -14 15 -103 158 -168 270 -73 128 -199 382 -253 510 -40 96 -140 361 -140 372 0 3 33 -13 73 -35 l72 -40 86 -253z m-1350 292 c-6 -10 -21 -21 -33 -24 -13 -3 -212 -53 -442 -111 -231 -58 -421 -104 -423 -102 -4 4 71 66 107 89 28 18 303 80 555 127 94 17 177 32 185 34 8 2 25 4 38 5 19 1 21 -2 13 -18z m1536 -116 l11 -35 -58 45 c-35 27 -59 54 -62 69 -5 24 -4 24 47 -10 37 -25 55 -44 62 -69z m-1517 70 c-7 -8 -17 -15 -22 -15 -6 0 -5 7 2 15 7 8 17 15 22 15 6 0 5 -7 -2 -15z m1400 -55 c8 -16 -2 -12 -42 16 -76 53 -80 60 -21 30 29 -14 57 -35 63 -46z m140 38 c15 -21 17 -28 6 -19 -16 13 -41 51 -33 51 2 0 14 -15 27 -32z m-1602 0 c-10 -28 -429 -172 -838 -288 -80 -22 -151 -43 -158 -45 -16 -6 33 58 72 95 22 20 104 44 464 136 240 61 443 112 450 113 8 0 12 -5 10 -11z m-708 -19 c-33 -26 -81 -52 -86 -46 -5 5 34 32 76 54 35 18 39 16 10 -8z m2181 -75 c6 -7 30 -82 54 -166 86 -309 149 -502 259 -808 26 -72 -5 -31 -57 75 -141 286 -284 650 -370 942 l-15 52 59 -41 c32 -22 64 -46 70 -54z m-1506 36 c-11 -17 -255 -136 -423 -206 -252 -105 -638 -240 -663 -232 -15 5 75 125 98 131 10 3 115 33 233 67 207 59 647 202 720 234 43 19 43 19 35 6z m1598 -44 c26 -20 47 -44 47 -52 0 -12 -5 -12 -27 5 -47 33 -93 79 -93 92 0 13 1 12 73 -45z m92 -5 c54 -67 58 -97 6 -45 -39 39 -68 95 -40 78 8 -4 23 -19 34 -33z m-2475 5 c0 -10 -108 -94 -130 -100 -21 -6 -17 0 20 34 25 23 59 48 75 55 34 16 35 16 35 11z m740 -20 c0 -6 -159 -106 -284 -178 -129 -74 -316 -167 -486 -241 -113 -49 -381 -149 -386 -144 -2 1 15 35 36 74 l40 71 147 47 c293 93 572 202 803 313 140 68 130 63 130 58z m1681 -83 c34 -37 40 -59 148 -487 62 -246 110 -450 107 -453 -10 -10 -37 46 -79 167 -78 219 -155 460 -207 645 -28 99 -52 186 -55 193 -7 20 46 -21 86 -65z m-2586 18 c-22 -21 -51 -42 -65 -46 l-25 -7 25 27 c27 29 78 65 95 65 5 0 -8 -18 -30 -39z m2724 -103 c6 -15 8 -28 7 -28 -11 0 -94 109 -100 130 -6 20 2 15 38 -24 25 -27 50 -62 55 -78z m-2859 46 c-8 -8 -23 -20 -34 -25 -13 -6 -10 0 9 15 34 29 43 33 25 10z m910 -7 c-107 -98 -421 -302 -660 -430 -85 -45 -420 -197 -435 -197 -5 0 12 65 31 117 14 37 21 44 67 59 289 94 622 245 892 403 66 38 122 70 125 70 3 1 -6 -9 -20 -22z m-769 -4 c-17 -30 -89 -103 -102 -103 -13 0 -12 1 45 73 20 26 44 47 52 47 11 0 12 -4 5 -17z m-116 -62 c-24 -32 -55 -61 -67 -64 -12 -4 -23 -5 -24 -4 -1 1 13 24 31 52 30 43 49 58 102 74 2 1 -17 -25 -42 -58z m2859 -77 c21 -41 67 -245 122 -529 51 -268 51 -270 25 -253 -11 6 -21 21 -24 32 -3 12 -52 210 -111 441 -58 230 -106 422 -106 425 0 11 80 -87 94 -116z m-2960 42 c-17 -30 -35 -48 -56 -55 -17 -6 -33 -11 -35 -11 -12 0 55 84 76 95 40 22 42 18 15 -29z m925 8 c-150 -158 -487 -411 -734 -554 -84 -48 -307 -160 -319 -160 -8 0 -5 87 3 124 5 26 17 33 106 67 119 47 412 189 509 247 37 23 70 42 73 42 7 0 324 216 358 244 43 36 44 32 4 -10z m2084 -31 c24 -39 39 -73 33 -73 -6 0 -66 93 -66 102 0 16 10 7 33 -29z m-3120 -24 c-19 -33 -50 -55 -61 -44 -6 6 64 75 75 75 2 0 -4 -14 -14 -31z m179 -48 c-26 -38 -48 -67 -50 -66 -7 6 61 116 76 125 10 5 18 10 19 10 1 0 -19 -31 -45 -69z m848 55 c0 -2 -8 -10 -17 -17 -16 -13 -17 -12 -4 4 13 16 21 21 21 13z m-905 -76 c-20 -39 -42 -70 -50 -70 -19 0 -19 -2 6 64 20 51 30 61 77 75 1 1 -14 -30 -33 -69z m-78 -25 c-18 -47 -28 -60 -50 -66 -32 -9 -32 -10 -10 57 13 43 21 53 47 61 17 5 32 9 33 8 2 -1 -7 -28 -20 -60z m894 -4 c-151 -174 -442 -426 -656 -568 -131 -87 -285 -177 -291 -171 -2 2 -6 35 -10 74 l-6 69 153 77 c283 141 555 322 769 511 47 41 87 73 89 71 2 -2 -20 -30 -48 -63z m2223 -13 c46 -74 92 -264 130 -543 27 -197 27 -186 -6 -161 -13 9 -27 65 -53 207 -34 183 -101 509 -110 537 -9 26 7 10 39 -40z m-3198 26 c-3 -9 -9 -33 -12 -54 -6 -34 -10 -39 -45 -48 -22 -5 -39 -7 -39 -5 0 34 29 89 54 104 38 23 50 24 42 3z m-110 -60 c-3 -9 -6 -26 -6 -39 0 -18 -9 -26 -45 -38 l-45 -16 11 22 c14 28 70 87 82 87 5 0 6 -7 3 -16z m194 -95 c-30 -76 -38 -73 -19 9 10 40 35 79 45 69 2 -2 -10 -37 -26 -78z m-33 48 c-2 -7 -10 -38 -16 -69 -7 -34 -18 -59 -28 -62 -23 -9 -25 -4 -17 64 5 50 11 63 28 70 30 12 39 12 33 -3z m-83 -79 c-4 -35 -7 -64 -8 -65 -1 -1 -13 -4 -27 -8 -25 -6 -27 -4 -33 39 -11 72 0 91 57 95 16 1 17 -5 11 -61z m-94 3 c0 -16 3 -42 6 -59 6 -29 4 -31 -35 -43 -23 -7 -43 -10 -45 -8 -3 2 -6 27 -8 54 -3 48 -2 51 32 67 46 24 50 23 50 -11z m3475 -163 c28 -108 52 -244 63 -356 l8 -80 -23 11 c-13 6 -23 13 -23 17 0 32 -46 340 -65 440 -14 69 -25 127 -25 130 2 21 45 -88 65 -162z m-3585 130 c0 -7 3 -30 6 -50 6 -34 4 -38 -20 -48 -62 -23 -76 -24 -76 -1 0 30 25 77 52 95 27 19 38 20 38 4z m249 -96 c-5 -32 -13 -69 -18 -83 -8 -19 -10 -8 -10 53 -1 65 2 77 17 81 9 3 17 5 18 6 0 0 -3 -25 -7 -57z m-49 -38 c0 -66 -2 -75 -17 -72 -22 4 -49 127 -29 133 6 2 18 6 26 8 8 3 16 6 18 6 1 1 2 -33 2 -75z m-77 33 c3 -8 8 -39 12 -69 7 -52 6 -56 -16 -61 -30 -8 -35 -3 -58 66 -15 43 -17 59 -8 62 7 2 19 6 27 8 26 9 38 7 43 -6z m-82 -77 c11 -30 17 -60 15 -65 -2 -6 -20 -16 -39 -22 l-35 -11 -26 52 c-14 28 -26 57 -28 65 -3 14 55 41 80 38 8 -1 22 -27 33 -57z m-116 -40 c16 -33 27 -62 24 -64 -2 -2 -28 -10 -57 -19 l-53 -15 -20 40 c-11 21 -17 47 -14 57 4 15 68 60 86 61 3 0 18 -27 34 -60z m284 -27 c-1 -10 -4 -29 -9 -43 l-7 -25 -8 27 c-8 31 -1 58 15 58 5 0 10 -8 9 -17z m-41 -66 c14 -55 12 -87 -6 -87 -7 0 -62 120 -62 134 0 6 33 14 45 12 5 -2 16 -28 23 -59z m-39 -101 c-2 -2 -14 -6 -25 -10 -18 -5 -28 3 -58 48 -52 79 -52 81 -9 92 l38 9 29 -68 c15 -37 27 -69 25 -71z m3518 122 c-3 -8 -6 -5 -6 6 -1 11 2 17 5 13 3 -3 4 -12 1 -19z m-3634 -79 c20 -33 37 -64 37 -69 0 -7 -47 -23 -70 -25 -3 0 -32 29 -65 65 l-59 64 44 12 c70 19 73 17 113 -47z m3682 -123 c15 -89 14 -109 -5 -90 -8 8 -41 236 -39 269 1 20 29 -92 44 -179z m-3478 142 c-3 -8 -6 -5 -6 6 -1 11 2 17 5 13 3 -3 4 -12 1 -19z m-324 -63 l58 -64 -52 -16 c-29 -8 -60 -15 -69 -15 -9 0 -42 23 -74 51 -48 43 -55 54 -44 65 14 15 84 42 108 43 8 0 41 -29 73 -64z m306 -42 c0 -29 -2 -33 -8 -18 -7 18 -4 55 5 55 2 0 4 -17 3 -37z m-45 2 c3 -8 3 -29 -1 -45 l-6 -31 -24 37 c-21 29 -23 38 -12 45 21 13 36 11 43 -6z m-49 -57 c35 -53 46 -98 22 -98 -7 0 -39 27 -71 59 l-59 60 34 15 c19 8 35 15 36 15 1 1 18 -23 38 -51z m3355 11 c0 -6 -4 -7 -10 -4 -5 3 -10 11 -10 16 0 6 5 7 10 4 6 -3 10 -11 10 -16z m-3432 -61 c59 -61 60 -63 39 -75 -12 -7 -30 -12 -39 -13 -16 0 -172 109 -165 116 6 6 81 33 94 33 6 1 38 -27 71 -61z m3495 21 c4 -15 2 -16 -13 -6 -10 6 -21 19 -23 28 -4 15 -2 16 13 6 10 -6 21 -19 23 -28z m-3333 -10 c0 -18 -4 -28 -10 -24 -5 3 -10 20 -10 36 0 18 4 28 10 24 6 -3 10 -20 10 -36z m-292 -45 c42 -32 81 -60 85 -64 5 -5 -16 -17 -47 -29 l-55 -20 -126 56 c-69 31 -122 59 -119 62 3 3 44 16 92 27 48 12 88 22 90 23 1 0 37 -24 80 -55z m3692 16 c0 -11 -4 -20 -8 -20 -14 0 -32 24 -32 42 0 16 3 17 20 8 11 -6 20 -20 20 -30z m70 -42 c0 -47 -32 -30 -45 25 -7 27 -7 27 19 16 19 -9 26 -20 26 -41z m-120 5 c0 -13 -3 -13 -15 -3 -8 7 -15 19 -15 27 0 13 3 13 15 3 8 -7 15 -19 15 -27z m-3310 -18 c0 -17 -2 -17 -10 -5 -5 8 -10 24 -10 35 0 17 2 17 10 5 5 -8 10 -24 10 -35z m3483 -18 c6 -39 2 -44 -18 -27 -20 16 -21 72 -1 64 8 -3 16 -20 19 -37z m-3529 17 c3 -9 6 -25 6 -36 0 -17 -3 -18 -15 -8 -16 13 -21 60 -6 60 5 0 12 -7 15 -16z m3416 -28 c0 -18 -1 -19 -20 -1 -11 10 -20 24 -20 32 0 11 4 11 20 1 11 -7 20 -21 20 -32z m501 -100 l126 -32 -76 -17 c-42 -9 -94 -22 -117 -28 -40 -12 -43 -11 -147 47 -135 74 -143 81 -150 125 l-5 35 121 -49 c67 -27 179 -64 248 -81z m-3975 90 c3 -13 4 -33 2 -45 -3 -20 -6 -19 -46 13 l-42 34 27 10 c43 16 52 14 59 -12z m3424 -7 c0 -6 -4 -7 -10 -4 -5 3 -10 11 -10 16 0 6 5 7 10 4 6 -3 10 -11 10 -16z m110 -33 c0 -28 0 -29 -20 -11 -11 10 -20 29 -20 42 0 21 2 22 20 11 13 -8 20 -24 20 -42z m-3420 -20 c0 -15 -3 -16 -15 -6 -8 7 -15 24 -15 38 0 25 1 25 15 6 8 -10 15 -27 15 -38z m-165 2 c48 -38 54 -47 54 -81 l1 -38 -42 25 c-24 13 -74 42 -112 64 l-68 40 43 15 c62 22 64 22 124 -25z m115 -30 c0 -26 -2 -27 -20 -16 -14 9 -20 24 -20 47 0 33 0 34 20 16 11 -10 20 -31 20 -47z m3530 5 c0 -31 -2 -32 -20 -21 -13 9 -20 24 -20 45 0 31 2 32 20 21 13 -9 20 -24 20 -45z m-110 10 c0 -13 -3 -13 -15 -3 -8 7 -15 19 -15 27 0 13 3 13 15 3 8 -7 15 -19 15 -27z m-3610 -58 c63 -36 117 -68 121 -73 3 -4 9 -23 12 -43 l5 -35 -128 51 c-70 29 -181 65 -247 81 l-118 29 105 26 c58 15 112 27 121 28 8 1 66 -28 129 -64z m3893 -22 l67 -37 -42 -18 c-61 -24 -68 -23 -126 28 -44 39 -52 51 -52 80 l0 35 43 -26 c23 -14 72 -42 110 -62z m-233 30 c0 -22 -2 -24 -15 -13 -8 7 -15 24 -15 37 0 22 2 24 15 13 8 -7 15 -24 15 -37z m-3380 4 c0 -5 -4 -5 -10 -2 -5 3 -10 14 -10 23 0 15 2 15 10 2 5 -8 10 -19 10 -23z m-40 -19 c0 -30 -25 -15 -28 17 -3 25 -2 27 12 16 9 -8 16 -22 16 -33z m3370 -6 c0 -15 -2 -15 -10 -2 -13 20 -13 33 0 25 6 -3 10 -14 10 -23z m-3420 -44 c0 -26 -2 -27 -20 -16 -14 9 -20 24 -20 47 0 33 0 34 20 16 11 -10 20 -31 20 -47z m3514 46 c10 -4 16 -18 16 -42 0 -34 0 -35 -20 -17 -11 10 -20 29 -20 42 0 25 1 26 24 17z m-3411 -57 c6 -22 6 -22 -14 2 -22 27 -26 49 -5 32 8 -6 16 -22 19 -34z m3367 -15 c0 -25 -1 -25 -15 -6 -8 10 -15 27 -15 38 0 15 3 16 15 6 8 -7 15 -24 15 -38z m-3410 -19 c0 -21 -2 -22 -20 -11 -13 8 -20 24 -20 42 0 28 0 29 20 11 11 -10 20 -29 20 -42z m3552 11 l27 -22 -30 -11 c-44 -15 -59 -5 -59 41 0 44 -4 45 62 -8z m321 -44 c65 -29 115 -55 112 -59 -4 -3 -46 -16 -93 -28 l-87 -21 -54 36 c-29 20 -69 48 -88 63 l-34 27 53 21 c29 11 58 18 63 16 6 -2 63 -27 128 -55z m-3945 28 c15 -15 16 -68 2 -68 -11 0 -14 7 -24 53 -7 29 2 35 22 15z m162 -9 c0 -6 -4 -7 -10 -4 -5 3 -10 11 -10 16 0 6 5 7 10 4 6 -3 10 -11 10 -16z m3370 -26 c0 -37 -24 -22 -28 17 -3 30 -2 32 12 21 9 -8 16 -25 16 -38z m-3416 21 c9 -8 16 -22 16 -30 0 -12 -3 -12 -20 -2 -11 7 -20 21 -20 30 0 22 4 22 24 2z m-46 -48 c17 -33 11 -41 -17 -26 -13 6 -21 21 -21 36 0 33 20 27 38 -10z m3412 -4 c0 -7 -4 -10 -10 -7 -5 3 -10 16 -10 28 0 18 2 19 10 7 5 -8 10 -21 10 -28z m275 -18 c41 -31 75 -58 75 -60 0 -2 -25 -11 -55 -20 l-56 -16 -58 64 c-57 61 -58 63 -37 75 36 21 54 15 131 -43z m-3575 -3 c-1 -13 -3 -13 -15 3 -19 26 -19 42 0 26 8 -7 15 -20 15 -29z m3502 -103 c-4 -4 -21 -10 -38 -14 -28 -5 -33 -2 -62 43 -33 51 -41 88 -21 95 14 5 130 -115 121 -124z m-3542 70 c0 -16 -3 -16 -20 -6 -11 7 -20 24 -20 37 0 23 1 24 20 6 11 -10 20 -26 20 -37z m-135 23 c7 -12 37 -263 31 -268 -3 -3 -37 157 -51 240 -5 34 6 50 20 28z m3515 -44 c0 -24 -3 -28 -10 -17 -13 20 -13 63 0 55 6 -3 10 -21 10 -38z m-3440 3 c0 -32 46 -340 65 -439 14 -69 23 -126 21 -128 -2 -2 -13 19 -25 46 -28 67 -66 230 -85 371 -28 201 -28 181 0 168 13 -6 24 -14 24 -18z m120 -15 c0 -20 -27 -8 -33 16 -4 16 -2 17 14 8 10 -5 19 -16 19 -24z m3267 3 c-3 -8 -6 -5 -6 6 -1 11 2 17 5 13 3 -3 4 -12 1 -19z m-33 -34 c13 -101 17 -95 -101 -153 -312 -152 -656 -383 -877 -590 -97 -91 -32 -10 114 142 113 117 322 302 440 388 121 89 391 259 411 259 4 0 9 -21 13 -46z m-3264 -103 c38 -210 81 -424 106 -529 13 -57 24 -106 24 -109 0 -4 -18 20 -39 53 -29 44 -46 85 -64 164 -30 124 -63 309 -81 454 l-12 104 22 -10 c19 -9 25 -27 44 -127z m3409 58 c-35 -22 -53 0 -42 51 l6 31 24 -37 c21 -29 23 -38 12 -45z m-3323 34 c-7 -7 -26 7 -26 19 0 6 6 6 15 -2 9 -7 13 -15 11 -17z m3677 -24 c45 -40 55 -54 47 -65 -13 -14 -105 -48 -119 -42 -4 2 -34 31 -65 65 l-57 62 48 15 c74 22 85 20 146 -35z m-3706 -31 c6 -24 56 -223 112 -443 56 -220 101 -402 101 -404 0 -7 -85 92 -97 113 -21 39 -163 719 -163 781 0 32 36 -3 47 -47z m3274 10 c-9 -20 -10 -18 -10 17 0 31 2 36 9 23 6 -10 7 -25 1 -40z m289 -114 c-25 -8 -52 -14 -60 -13 -14 0 -90 109 -90 128 0 4 15 13 33 18 31 10 34 8 97 -55 l65 -65 -45 -13z m-3464 -24 c68 -186 127 -369 200 -620 36 -124 67 -231 70 -238 5 -18 -94 65 -111 92 -11 18 -235 885 -235 911 0 31 36 -38 76 -145z m3320 73 c50 -79 50 -79 7 -90 l-38 -9 -27 64 c-16 35 -28 68 -28 72 0 7 17 15 42 19 4 0 24 -25 44 -56z m-3253 -98 c70 -141 163 -356 222 -515 39 -104 155 -447 155 -458 0 -5 -101 67 -122 87 -11 10 -47 116 -88 260 -68 237 -176 571 -226 701 -36 94 -6 56 59 -75z m3170 59 c16 -36 27 -68 25 -70 -3 -2 -15 -5 -28 -6 -21 -3 -25 3 -38 54 -14 55 -12 88 5 88 4 0 21 -30 36 -66z m-3069 -144 c154 -259 246 -440 338 -670 58 -144 119 -312 115 -316 -1 -2 -35 15 -74 36 l-72 40 -51 162 c-92 291 -221 617 -342 863 -42 87 -4 36 86 -115z m2945 123 c-3 -99 -4 -100 -114 -144 -140 -55 -437 -204 -580 -289 -120 -72 -323 -210 -380 -258 -16 -14 9 13 56 59 172 171 466 389 714 530 104 59 281 147 298 149 4 0 6 -21 6 -47z m38 25 c-3 -8 -6 -5 -6 6 -1 11 2 17 5 13 3 -3 4 -12 1 -19z m409 -86 c4 -15 0 -30 -12 -43 -19 -21 -73 -53 -79 -47 -8 9 -55 109 -55 116 0 5 24 16 53 24 50 14 53 14 70 -6 9 -12 20 -31 23 -44z m-377 20 c7 -24 6 -32 -6 -37 -22 -8 -25 -2 -17 39 7 42 11 41 23 -2z m-3462 6 c-3 -8 -6 -5 -6 6 -1 11 2 17 5 13 3 -3 4 -12 1 -19z m544 -150 c212 -279 425 -663 534 -959 l13 -37 -36 9 c-20 6 -56 17 -79 25 -40 15 -43 18 -69 97 -99 302 -258 639 -470 995 -16 27 -16 27 2 5 11 -12 58 -72 105 -135z m3164 59 c15 -37 15 -37 -12 -48 -62 -24 -72 -19 -94 45 -11 32 -17 61 -14 65 4 3 21 11 38 17 29 10 33 9 49 -15 9 -15 24 -43 33 -64z m-128 -15 l22 -61 -35 -11 c-20 -7 -38 -10 -41 -7 -3 3 -11 35 -17 71 -12 63 -12 65 8 69 36 7 40 2 63 -61z m-91 -27 c7 -33 10 -63 8 -66 -2 -4 -15 -9 -29 -11 -25 -5 -25 -5 -25 69 0 65 2 74 17 71 12 -2 21 -21 29 -63z m-2722 -210 c113 -139 222 -293 313 -445 52 -86 193 -359 193 -372 0 -9 -82 -8 -123 1 -26 5 -33 17 -68 106 -40 102 -193 416 -249 514 -56 97 -191 305 -252 386 l-59 80 82 -85 c45 -47 118 -130 163 -185z m2656 191 c0 -63 -3 -74 -18 -78 -17 -5 -18 -1 -10 51 18 124 28 134 28 27z m-61 17 c-28 -110 -34 -118 -107 -142 -272 -92 -679 -278 -904 -414 -60 -36 -108 -62 -108 -58 1 13 321 244 400 289 19 10 73 42 119 71 136 82 529 271 608 291 1 0 -3 -17 -8 -37z m-2586 -135 c163 -153 358 -378 483 -558 77 -111 199 -319 191 -326 -2 -2 -35 -6 -73 -10 l-69 -6 -69 138 c-145 296 -364 621 -561 833 -76 82 -28 47 98 -71z m2957 92 c0 -31 -26 -75 -55 -94 -15 -10 -29 -16 -31 -14 -2 3 -5 26 -6 53 -3 46 -2 48 32 61 50 18 60 17 60 -6z m-116 -66 c3 -25 3 -51 0 -56 -7 -10 -74 -41 -79 -36 -1 2 -5 29 -9 60 -6 55 -5 57 22 66 51 19 59 15 66 -34z m-110 -29 c10 -62 2 -80 -40 -93 l-36 -11 6 37 c3 20 6 51 6 69 0 30 9 38 46 42 7 0 15 -19 18 -44z m-88 -21 c-3 -26 -6 -55 -6 -66 0 -16 -46 -45 -56 -36 -6 7 29 133 39 140 24 16 30 7 23 -38z m-76 -44 c-9 -42 -19 -64 -33 -72 -17 -9 -19 -8 -12 8 4 11 17 45 29 76 11 31 22 55 25 53 2 -3 -2 -32 -9 -65z m-78 -22 l-40 -73 -253 -86 c-301 -101 -436 -154 -664 -261 -93 -43 -165 -74 -160 -69 15 14 158 103 270 168 124 71 381 199 500 249 103 43 366 143 378 143 5 1 -9 -32 -31 -71z m334 -5 c-15 -30 -73 -89 -79 -82 -3 2 -2 20 0 40 4 31 10 38 46 52 23 8 43 16 45 16 1 1 -4 -11 -12 -26z m-101 -45 c-11 -49 -22 -66 -56 -84 -17 -8 -32 -14 -34 -12 -1 2 2 26 8 55 9 44 15 52 41 61 47 15 48 14 41 -20z m-111 -57 c-12 -43 -21 -55 -47 -66 -18 -7 -33 -12 -34 -11 -2 1 8 29 20 61 17 45 29 61 47 66 14 3 26 5 27 4 2 -1 -4 -25 -13 -54z m-74 25 c0 -2 -10 -29 -21 -60 -17 -42 -28 -57 -50 -65 l-29 -10 31 62 c18 34 37 65 43 69 12 8 26 10 26 4z m-100 -80 c-18 -31 -40 -61 -50 -66 -11 -6 0 17 28 59 26 38 48 67 50 66 2 -2 -11 -28 -28 -59z m-46 2 c-61 -86 -62 -87 -225 -132 -310 -87 -503 -149 -809 -260 -72 -26 -31 5 75 57 282 140 553 247 885 353 58 18 107 33 108 33 2 1 -13 -23 -34 -51z m-2898 -81 c9 -16 14 -31 11 -33 -5 -5 -51 63 -60 91 -6 16 -3 15 13 -5 11 -14 28 -38 36 -53z m3164 64 c0 -5 -19 -24 -41 -42 l-41 -33 16 32 c20 39 66 69 66 43z m-107 -62 c-22 -33 -67 -69 -87 -69 -2 0 7 20 20 44 22 39 52 62 87 65 4 1 -5 -17 -20 -40z m-112 -48 c-20 -31 -41 -51 -58 -56 -14 -3 -27 -5 -29 -3 -7 7 77 107 93 110 28 7 28 2 -6 -51z m-68 17 c-47 -65 -86 -106 -103 -111 -14 -4 -18 -2 -12 8 13 25 103 115 114 115 7 0 7 -5 1 -12z m-114 -59 c-23 -28 -52 -57 -63 -64 -24 -16 -905 -239 -913 -231 -15 15 107 62 451 176 116 39 461 142 564 169 2 1 -15 -22 -39 -50z m-2666 -21 c24 -29 48 -64 51 -78 6 -20 -2 -15 -38 25 -38 42 -75 105 -61 105 2 0 23 -24 48 -52z m2867 8 c0 -3 -15 -14 -32 -26 l-33 -22 28 26 c27 25 37 31 37 22z m-100 -42 c0 -6 -55 -54 -77 -67 -26 -15 -27 2 -2 29 28 31 79 55 79 38z m-145 -69 c-27 -24 -63 -49 -80 -54 -27 -10 -25 -6 20 35 47 43 78 62 100 63 6 0 -12 -20 -40 -44z m-2466 -48 c28 -27 51 -53 51 -59 0 -12 -2 -10 -71 45 -26 20 -49 45 -52 57 -7 27 8 18 72 -43z m2356 21 c-26 -24 -57 -48 -69 -55 -38 -20 -716 -162 -779 -163 -14 0 -15 3 -6 18 12 19 75 37 644 181 127 32 236 59 244 60 8 0 -8 -18 -34 -41z m-2463 5 c26 -29 46 -73 31 -72 -10 0 -73 78 -73 90 0 16 16 9 42 -18z m175 -154 c7 -13 10 -25 8 -27 -5 -6 -105 58 -105 67 0 3 -3 17 -7 31 -6 24 -5 23 43 -12 27 -20 54 -46 61 -59z m2273 77 c0 -5 -72 -51 -92 -59 -30 -11 -20 0 29 32 42 28 63 37 63 27z m-2135 -104 c-7 -7 -116 62 -125 78 -6 11 17 0 59 -28 38 -26 67 -48 66 -50z m1969 39 c-44 -29 -85 -46 -164 -64 -177 -43 -561 -103 -560 -88 2 30 37 43 221 76 209 39 521 104 528 111 2 2 11 4 19 4 8 0 -11 -18 -44 -39z m-2213 -13 c16 -29 2 -21 -22 15 -17 23 -18 28 -6 18 10 -8 23 -23 28 -33z m264 -76 c9 -24 1 -24 -58 -1 -43 16 -58 28 -66 50 l-10 28 64 -31 c36 -18 67 -38 70 -46z m1270 68 c-3 -5 -11 -10 -16 -10 -6 0 -7 5 -4 10 3 6 11 10 16 10 6 0 7 -4 4 -10z m-1396 -92 c6 -17 11 -33 11 -35 0 -13 -84 56 -96 78 -20 40 -19 40 30 13 30 -17 48 -35 55 -56z m1369 43 c-7 -11 -20 -22 -29 -24 -15 -4 -16 -2 -6 14 6 10 18 20 27 23 8 2 16 4 18 5 1 0 -3 -8 -10 -18z m-78 -26 c-7 -8 -19 -15 -27 -15 -13 0 -13 3 -3 15 7 8 19 15 27 15 13 0 13 -3 3 -15z m-1045 -31 c66 -25 55 -31 -25 -12 -32 7 -55 19 -62 31 -9 17 -8 19 8 12 11 -4 46 -18 79 -31z m1630 14 c-72 -38 -245 -75 -532 -112 -30 -4 -31 -3 -21 19 8 19 21 25 62 30 156 20 332 47 411 64 116 25 128 25 80 -1z m-1790 -11 c47 -18 60 -28 66 -50 7 -25 6 -27 -19 -21 -62 15 -89 32 -100 63 -6 17 -10 31 -9 31 2 0 29 -10 62 -23z m1130 13 c-3 -5 -11 -10 -16 -10 -6 0 -7 5 -4 10 3 6 11 10 16 10 6 0 7 -4 4 -10z m115 -30 c-10 -19 -50 -29 -50 -12 0 14 24 32 42 32 16 0 17 -3 8 -20z m-82 -10 c-7 -11 -21 -20 -32 -20 -18 0 -19 1 -1 20 10 11 24 20 32 20 11 0 11 -4 1 -20z m-1218 -49 c25 -48 0 -41 -41 10 l-33 41 32 -16 c17 -9 36 -25 42 -35z m222 30 c42 -9 57 -17 61 -32 5 -20 3 -20 -56 -14 -68 8 -72 9 -82 44 -6 18 -4 23 7 19 7 -3 39 -11 70 -17z m908 4 c-7 -8 -19 -15 -27 -15 -13 0 -13 3 -3 15 7 8 19 15 27 15 13 0 13 -3 3 -15z m-75 -5 c-3 -5 -14 -10 -23 -10 -15 0 -15 2 -2 10 20 13 33 13 25 0z m-598 -43 c3 -4 -28 -7 -69 -7 -65 0 -76 3 -80 18 -5 18 -1 18 68 7 41 -6 77 -14 81 -18z m811 8 c-8 -18 -19 -25 -40 -25 -35 0 -33 19 3 37 39 21 50 17 37 -12z m-90 -5 c-8 -13 -24 -20 -42 -20 -28 0 -29 0 -11 20 10 11 29 20 42 20 21 0 22 -2 11 -20z m-1078 -6 c32 -5 39 -11 48 -42 6 -20 10 -38 8 -40 -2 -2 -23 2 -45 8 -30 8 -48 20 -61 43 -24 39 -25 51 -4 43 9 -3 33 -9 54 -12z m900 1 c-7 -8 -24 -15 -38 -15 -25 0 -25 1 -6 15 10 8 27 15 38 15 15 0 16 -3 6 -15z m90 0 c-7 -8 -24 -15 -37 -15 -22 0 -24 2 -13 15 7 8 24 15 37 15 22 0 24 -2 13 -15z m-283 -1 c-3 -3 -12 -4 -19 -1 -8 3 -5 6 6 6 11 1 17 -2 13 -5z m93 -4 c-20 -13 -43 -13 -35 0 3 6 16 10 28 10 18 0 19 -2 7 -10z m677 4 c-3 -3 -12 -4 -19 -1 -8 3 -5 6 6 6 11 1 17 -2 13 -5z m-960 -10 c-3 -3 -12 -4 -19 -1 -8 3 -5 6 6 6 11 1 17 -2 13 -5z m878 -10 c-69 -18 -227 -45 -234 -39 -14 15 26 27 125 39 142 17 170 17 109 0z m-1198 -8 c1 -1 4 -13 8 -27 6 -25 4 -27 -39 -33 -63 -10 -81 -2 -93 39 l-11 35 66 -6 c37 -4 68 -7 69 -8z m253 4 c24 -7 24 -7 -10 -17 -24 -7 -37 -6 -42 1 -18 26 0 32 52 16z m-82 -17 c-2 -12 -21 -21 -63 -29 -33 -7 -63 -10 -66 -8 -4 2 -9 15 -11 29 -5 25 -5 25 69 25 65 0 74 -2 71 -17z m270 7 c-10 -6 -25 -7 -40 -1 -20 9 -18 10 17 10 31 0 36 -2 23 -9z m97 -10 c-3 -5 -21 -10 -38 -10 -24 0 -28 3 -17 10 20 13 63 13 55 0z m105 -5 c-13 -16 -60 -21 -60 -7 0 15 13 22 43 22 25 0 28 -2 17 -15z m98 -5 c-9 -14 -24 -20 -47 -20 -33 0 -34 0 -16 20 10 11 31 20 47 20 26 0 27 -2 16 -20z m100 0 c-9 -13 -24 -20 -45 -20 -31 0 -32 2 -21 20 9 13 24 20 45 20 31 0 32 -2 21 -20z m96 6 c-5 -13 -63 -29 -73 -20 -2 2 2 10 9 19 16 20 72 21 64 1z m-577 -11 c3 -10 -125 -70 -133 -63 -2 3 -5 15 -6 28 -3 20 3 25 42 36 51 14 92 14 97 -1z m123 -15 c8 0 -3 -12 -24 -26 -31 -21 -40 -24 -47 -13 -20 32 -3 52 36 44 11 -3 27 -5 35 -5z m-285 -31 c9 -27 1 -35 -68 -58 -61 -21 -61 -21 -72 26 -7 34 -10 32 60 46 50 11 74 7 80 -14z m377 10 c4 -12 -109 -125 -121 -122 -3 1 -12 15 -18 32 -13 30 -12 31 39 66 53 35 93 45 100 24z m295 -111 c-27 -68 -63 -179 -81 -248 l-31 -125 -29 117 -28 117 37 68 c90 164 104 182 138 186 18 2 35 5 38 5 3 1 -16 -53 -44 -120z m-1023 102 c17 0 26 -10 38 -45 l17 -45 -22 11 c-28 14 -87 70 -87 82 0 5 7 6 16 3 9 -3 26 -6 38 -6z m536 1 c0 -5 3 -16 6 -24 4 -11 -12 -27 -52 -52 -79 -51 -79 -51 -90 -8 l-9 38 60 27 c65 29 85 33 85 19z m309 -8 c-7 -10 -23 -30 -35 -45 l-22 -27 -11 30 c-15 44 -5 59 41 59 37 0 39 -1 27 -17z m96 -25 c-14 -24 -42 -73 -62 -111 l-37 -67 -18 42 c-24 61 -23 68 28 126 39 44 51 52 80 52 l35 0 -26 -42z m-752 -11 c5 -21 8 -40 6 -41 -2 -2 -25 -7 -51 -10 -42 -6 -48 -5 -61 16 -8 13 -18 33 -21 45 -6 20 -3 22 36 26 77 7 82 5 91 -36z m579 -62 c-12 -20 -115 -155 -118 -155 -2 0 -11 25 -20 55 l-16 56 64 58 63 59 17 -32 c9 -17 13 -35 10 -41z m-386 3 l13 -37 -62 -31 c-33 -17 -64 -27 -68 -23 -12 13 -31 84 -25 90 10 10 100 41 115 39 8 0 20 -18 27 -38z m191 -2 c10 -33 9 -36 -46 -90 -31 -31 -61 -56 -67 -56 -11 0 -34 65 -34 91 1 14 105 87 126 88 6 1 15 -14 21 -33z m-357 -31 c23 -61 23 -75 1 -75 -32 0 -76 25 -95 54 -21 33 -21 34 12 39 63 9 72 7 82 -18z m589 -49 l20 -54 -56 -126 c-31 -70 -59 -124 -62 -121 -3 4 -15 47 -27 96 l-21 89 41 58 c49 70 80 111 83 112 1 0 11 -24 22 -54z m-387 -41 l15 -55 -32 -20 c-42 -26 -57 -25 -82 3 -22 24 -47 67 -41 72 10 8 105 54 114 55 6 0 18 -25 26 -55z m204 -42 c5 -35 2 -42 -46 -96 -61 -67 -70 -65 -97 19 l-16 53 64 60 64 59 12 -28 c7 -16 15 -46 19 -67z" transform="matrix(.1 0 0 -.1 -210 540)"/></g></svg>