<?xml version="1.0" encoding="UTF-8" standalone="no"?><svg xmlns="http://www.w3.org/2000/svg" xmlns:xlink="http://www.w3.org/1999/xlink" fill="#000000" height="236.1" preserveAspectRatio="xMidYMid meet" version="1" viewBox="67.2 94.5 290.8 236.1" width="290.8" zoomAndPan="magnify"><g id="change1_1"><path d="M99.868,260.052V128.555c0.002-1.399,0.552-2.618,1.465-3.54c0.923-0.913,2.142-1.464,3.541-1.467h215.453 c1.398,0.003,2.618,0.554,3.541,1.467c0.913,0.921,1.463,2.141,1.465,3.54v136.497h10V128.555c0.002-4.128-1.687-7.911-4.395-10.611 c-2.7-2.708-6.484-4.398-10.611-4.395H104.874c-4.127-0.003-7.911,1.687-10.611,4.395c-2.708,2.7-4.397,6.482-4.395,10.611v136.497 h10V260.052" fill="#ffffff"/></g><g id="change2_1"><path d="M246 284.051L236 284.051 236 304.052 246 304.052 246 284.051" fill="#ffffff"/></g><g id="change2_2"><path d="M189.2 284.051L179.2 284.051 179.2 304.052 189.2 304.052 189.2 284.051" fill="#ffffff"/></g><g id="change2_3"><path d="M358,266.052L358,266.052L358,266.052 M358,265.051h-10v1h5h5l0,0l0,0V265.051 M340.009,94.548 c-0.003,0-0.006,0-0.01,0H85.201c-4.955-0.002-9.487,2.023-12.728,5.273c-3.25,3.241-5.275,7.772-5.273,12.728v153.502 c-0.002,4.954,2.023,9.486,5.273,12.729c3.239,3.247,7.767,5.271,12.718,5.271c0.003,0,0.006,0,0.01,0H179.2v-10h10v10H236v-10H246 v10H340c4.956,0.003,9.487-2.021,12.728-5.271c3.25-3.243,5.275-7.774,5.273-12.729h-5h-5c-0.002,2.224-0.888,4.193-2.344,5.657 c-1.463,1.456-3.431,2.34-5.657,2.343H85.201c-2.226-0.003-4.194-0.887-5.658-2.343c-1.455-1.464-2.341-3.433-2.343-5.657v-1h-10 v-10h10V112.549c0.002-2.226,0.889-4.194,2.343-5.658c1.464-1.454,3.432-2.34,5.658-2.343H340c2.226,0.002,4.194,0.889,5.657,2.343 c1.456,1.464,2.342,3.433,2.344,5.658v142.502h10V112.549c0.002-4.956-2.023-9.487-5.273-12.728 C349.489,96.574,344.961,94.548,340.009,94.548" fill="#ffffff"/></g><g id="change3_1"><path d="M246 274.052L236 274.052 236 284.051 246 284.051 246 274.052" fill="#ffffff"/></g><g id="change3_2"><path d="M189.2 274.052L179.2 274.052 179.2 284.051 189.2 284.051 189.2 274.052" fill="#ffffff"/></g><g id="change2_4"><path d="M89.868,255.052H77.2v10h12.668V255.052 M325.333,255.052H99.868v5v4.999h225.465V255.052 M348,255.052 h-12.668v10H348V255.052" fill="#ffffff"/></g><g id="change4_1"><path d="M99.868,255.052h-10v10h10v-4.999V255.052 M335.333,255.052h-10v10h10V255.052" fill="#ffffff"/></g><g id="change3_3"><path d="M77.2,255.052h-10v10h10V255.052 M358,255.052h-10v10h10V255.052" fill="#ffffff"/></g><g id="change2_5"><path d="M236,304.052h-46.8v10H236V304.052 M303.1,304.052H246v10h52.1v6.6h-171v-6.6h52.1v-10h-57.099 c-1.318,0-2.605,0.533-3.536,1.464c-0.931,0.931-1.464,2.218-1.464,3.535v16.6c0,1.316,0.533,2.604,1.464,3.535 c0.931,0.931,2.218,1.465,3.536,1.465H303.1c1.318,0,2.605-0.535,3.537-1.465c0.931-0.931,1.464-2.219,1.464-3.535h-5v-5v5h5l0,0 l0,0v-16.6c0-1.317-0.533-2.604-1.464-3.535C305.705,304.585,304.417,304.052,303.1,304.052" fill="#ffffff"/></g><g id="change3_4"><path d="M246 304.052L236 304.052 236 314.052 246 314.052 246 304.052" fill="#ffffff"/></g><g id="change3_5"><path d="M189.2 304.052L179.2 304.052 179.2 314.052 189.2 314.052 189.2 304.052" fill="#ffffff"/></g></svg>